<?xml version="1.0" encoding="UTF-8"?>
<svg xmlns="http://www.w3.org/2000/svg" xmlns:xlink="http://www.w3.org/1999/xlink" width="705pt" height="591.000005pt" viewBox="0 0 705 591.000005" version="1.2">
<defs>
<clipPath id="clip1">
  <path d="M 15 131 L 683 131 L 683 487.582031 L 15 487.582031 Z M 15 131 "/>
</clipPath>
<clipPath id="clip2">
  <path d="M 0.59375 421 L 704.402344 421 L 704.402344 487.582031 L 0.59375 487.582031 Z M 0.59375 421 "/>
</clipPath>
<clipPath id="clip3">
  <path d="M 449 86.402344 L 562 86.402344 L 562 125 L 449 125 Z M 449 86.402344 "/>
</clipPath>
<clipPath id="clip4">
  <path d="M 449 86.402344 L 562 86.402344 L 562 125 L 449 125 Z M 449 86.402344 "/>
</clipPath>
</defs>
<g id="surface1">
<path style=" stroke:none;fill-rule:nonzero;fill:rgb(100%,39.608765%,51.759338%);fill-opacity:1;" d="M 207.523438 219.335938 C 207.523438 221.082031 207.441406 222.820312 207.269531 224.554688 C 207.097656 226.292969 206.84375 228.015625 206.5 229.722656 C 206.160156 231.433594 205.738281 233.125 205.230469 234.792969 C 204.722656 236.460938 204.136719 238.101562 203.46875 239.710938 C 202.800781 241.324219 202.054688 242.898438 201.234375 244.4375 C 200.410156 245.972656 199.515625 247.46875 198.546875 248.917969 C 197.578125 250.367188 196.539062 251.765625 195.429688 253.113281 C 194.324219 254.460938 193.152344 255.753906 191.917969 256.984375 C 190.6875 258.21875 189.394531 259.390625 188.046875 260.496094 C 186.695312 261.601562 185.296875 262.640625 183.84375 263.609375 C 182.394531 264.578125 180.898438 265.472656 179.359375 266.292969 C 177.820312 267.117188 176.246094 267.859375 174.632812 268.527344 C 173.023438 269.195312 171.378906 269.78125 169.710938 270.289062 C 168.039062 270.792969 166.351562 271.21875 164.636719 271.558594 C 162.925781 271.898438 161.203125 272.152344 159.464844 272.324219 C 157.730469 272.496094 155.988281 272.582031 154.242188 272.582031 C 152.5 272.582031 150.757812 272.496094 149.019531 272.324219 C 147.285156 272.152344 145.5625 271.898438 143.847656 271.558594 C 142.136719 271.21875 140.445312 270.792969 138.777344 270.289062 C 137.105469 269.78125 135.464844 269.195312 133.855469 268.527344 C 132.242188 267.859375 130.667969 267.117188 129.128906 266.292969 C 127.589844 265.472656 126.09375 264.578125 124.640625 263.609375 C 123.191406 262.640625 121.792969 261.601562 120.441406 260.496094 C 119.09375 259.390625 117.800781 258.21875 116.566406 256.984375 C 115.335938 255.753906 114.164062 254.460938 113.058594 253.113281 C 111.949219 251.765625 110.910156 250.367188 109.941406 248.917969 C 108.972656 247.46875 108.078125 245.972656 107.253906 244.4375 C 106.429688 242.898438 105.6875 241.324219 105.019531 239.710938 C 104.351562 238.101562 103.761719 236.460938 103.257812 234.792969 C 102.75 233.125 102.328125 231.433594 101.988281 229.722656 C 101.644531 228.015625 101.390625 226.292969 101.21875 224.554688 C 101.046875 222.820312 100.960938 221.082031 100.960938 219.335938 C 100.960938 217.59375 101.046875 215.855469 101.21875 214.117188 C 101.390625 212.382812 101.644531 210.660156 101.988281 208.949219 C 102.328125 207.238281 102.75 205.550781 103.257812 203.882812 C 103.761719 202.210938 104.351562 200.574219 105.019531 198.960938 C 105.6875 197.351562 106.429688 195.777344 107.253906 194.238281 C 108.078125 192.699219 108.972656 191.207031 109.941406 189.757812 C 110.910156 188.304688 111.949219 186.90625 113.058594 185.558594 C 114.164062 184.210938 115.335938 182.921875 116.566406 181.6875 C 117.800781 180.453125 119.09375 179.285156 120.441406 178.179688 C 121.792969 177.074219 123.191406 176.035156 124.640625 175.066406 C 126.09375 174.097656 127.589844 173.203125 129.128906 172.378906 C 130.667969 171.558594 132.242188 170.8125 133.855469 170.144531 C 135.464844 169.480469 137.105469 168.890625 138.777344 168.386719 C 140.445312 167.878906 142.136719 167.457031 143.847656 167.117188 C 145.5625 166.777344 147.285156 166.519531 149.019531 166.347656 C 150.757812 166.179688 152.5 166.09375 154.242188 166.09375 C 155.988281 166.09375 157.730469 166.179688 159.464844 166.347656 C 161.203125 166.519531 162.925781 166.777344 164.636719 167.117188 C 166.351562 167.457031 168.039062 167.878906 169.710938 168.386719 C 171.378906 168.890625 173.023438 169.480469 174.632812 170.144531 C 176.246094 170.8125 177.820312 171.558594 179.359375 172.378906 C 180.898438 173.203125 182.394531 174.097656 183.84375 175.066406 C 185.296875 176.035156 186.695312 177.074219 188.046875 178.179688 C 189.394531 179.285156 190.6875 180.453125 191.917969 181.6875 C 193.152344 182.921875 194.324219 184.210938 195.429688 185.558594 C 196.539062 186.90625 197.578125 188.304688 198.546875 189.757812 C 199.515625 191.207031 200.410156 192.699219 201.234375 194.238281 C 202.054688 195.777344 202.800781 197.351562 203.46875 198.960938 C 204.136719 200.574219 204.722656 202.210938 205.230469 203.882812 C 205.738281 205.550781 206.160156 207.238281 206.5 208.949219 C 206.84375 210.660156 207.097656 212.382812 207.269531 214.117188 C 207.441406 215.855469 207.523438 217.59375 207.523438 219.335938 Z M 207.523438 219.335938 "/>
<g clip-path="url(#clip1)" clip-rule="nonzero">
<path style=" stroke:none;fill-rule:nonzero;fill:rgb(94.898987%,94.898987%,94.898987%);fill-opacity:1;" d="M 682.347656 465.292969 C 679.214844 468.113281 675.921875 470.742188 672.480469 473.175781 C 664.28125 478.933594 655.519531 483.640625 646.191406 487.296875 C 607.5625 486.367188 550.773438 481.632812 479.09375 479.105469 C 473.746094 477.28125 468.277344 475.300781 462.6875 473.175781 C 455.289062 470.359375 447.679688 467.261719 439.855469 463.886719 C 407.367188 449.859375 374.011719 440.738281 340.96875 435.292969 C 333.871094 434.121094 326.789062 433.117188 319.726562 432.28125 C 170.527344 414.453125 32.9375 466.839844 17 473.175781 L 15.464844 473.175781 L 25.265625 454.207031 L 192.035156 131.421875 L 231.039062 231.484375 L 243.484375 263.425781 L 277.789062 216.382812 L 295.5 192.097656 L 376.167969 284.511719 L 398.964844 234.195312 L 556.816406 362.921875 L 565.617188 370.097656 L 574.527344 377.367188 L 577.367188 379.683594 L 661.753906 448.503906 Z M 682.347656 465.292969 "/>
</g>
<path style=" stroke:none;fill-rule:nonzero;fill:rgb(0%,0%,0%);fill-opacity:0.098;" d="M 177.167969 196.429688 L 193.277344 161.140625 L 215.578125 212.527344 L 196.375 175.378906 Z M 177.167969 196.429688 "/>
<path style=" stroke:none;fill-rule:nonzero;fill:rgb(0%,0%,0%);fill-opacity:0.098;" d="M 340.96875 435.292969 C 333.871094 434.121094 326.789062 433.117188 319.726562 432.28125 L 243.484375 263.425781 Z M 340.96875 435.292969 "/>
<path style=" stroke:none;fill-rule:nonzero;fill:rgb(0%,0%,0%);fill-opacity:0.098;" d="M 277.789062 216.382812 L 295.5 202.621094 L 376.042969 295.488281 L 294.261719 216.242188 Z M 277.789062 216.382812 "/>
<path style=" stroke:none;fill-rule:nonzero;fill:rgb(0%,0%,0%);fill-opacity:0.098;" d="M 376.164062 284.507812 L 537.125 438.503906 L 515.109375 443.691406 Z M 376.164062 284.507812 "/>
<g clip-path="url(#clip2)" clip-rule="nonzero">
<path style=" stroke:none;fill-rule:nonzero;fill:rgb(24.708557%,23.919678%,33.729553%);fill-opacity:1;" d="M 704.40625 473.484375 C 704.40625 485.476562 683.984375 488.207031 646.191406 487.296875 C 607.5625 486.367188 550.773438 481.632812 479.09375 479.105469 C 451.980469 478.152344 422.730469 477.507812 391.53125 477.507812 C 197.179688 477.507812 0.59375 502.378906 0.59375 473.484375 C 0.59375 466.675781 9.34375 460.171875 25.265625 454.207031 C 72.476562 436.511719 182.742188 423.550781 314.84375 421.464844 C 320.851562 421.367188 326.90625 421.296875 333.003906 421.25 C 339.457031 421.195312 345.957031 421.167969 352.5 421.167969 C 405.019531 421.167969 454.855469 422.878906 499.617188 425.941406 C 499.761719 425.953125 499.898438 425.96875 500.039062 425.972656 C 503.632812 426.222656 507.191406 426.476562 510.714844 426.742188 C 514.5625 427.03125 518.367188 427.332031 522.132812 427.640625 C 522.90625 427.699219 523.683594 427.761719 524.449219 427.832031 C 525.007812 427.875 525.566406 427.921875 526.117188 427.972656 C 527.132812 428.054688 528.148438 428.140625 529.152344 428.234375 C 529.1875 428.230469 529.222656 428.234375 529.257812 428.238281 C 531.105469 428.402344 532.9375 428.5625 534.757812 428.722656 C 534.953125 428.742188 535.144531 428.757812 535.335938 428.773438 C 588.277344 433.570312 632.027344 440.386719 661.753906 448.503906 C 688.953125 455.925781 704.40625 464.433594 704.40625 473.484375 Z M 704.40625 473.484375 "/>
</g>
<path style=" stroke:none;fill-rule:nonzero;fill:rgb(24.708557%,23.919678%,33.729553%);fill-opacity:1;" d="M 44.511719 370.191406 C 44.511719 409.824219 69.394531 441.894531 100.144531 441.894531 "/>
<path style=" stroke:none;fill-rule:nonzero;fill:rgb(42.349243%,38.819885%,100%);fill-opacity:1;" d="M 100.144531 441.894531 C 100.144531 401.816406 127.910156 369.386719 162.222656 369.386719 "/>
<path style=" stroke:none;fill-rule:nonzero;fill:rgb(42.349243%,38.819885%,100%);fill-opacity:1;" d="M 64.667969 373.785156 C 64.667969 411.429688 80.535156 441.894531 100.144531 441.894531 "/>
<path style=" stroke:none;fill-rule:nonzero;fill:rgb(24.708557%,23.919678%,33.729553%);fill-opacity:1;" d="M 100.144531 441.894531 C 100.144531 390.683594 132.238281 349.242188 171.898438 349.242188 "/>
<path style=" stroke:none;fill-rule:nonzero;fill:rgb(65.879822%,65.879822%,65.879822%);fill-opacity:1;" d="M 88.441406 442.402344 C 88.441406 442.402344 96.328125 442.15625 98.707031 440.464844 C 101.085938 438.773438 110.84375 436.753906 111.433594 439.46875 C 112.023438 442.179688 123.289062 452.960938 114.382812 453.035156 C 105.476562 453.105469 93.6875 451.648438 91.3125 450.203125 C 88.941406 448.757812 88.441406 442.402344 88.441406 442.402344 Z M 88.441406 442.402344 "/>
<path style=" stroke:none;fill-rule:nonzero;fill:rgb(0%,0%,0%);fill-opacity:0.2;" d="M 114.539062 452.089844 C 105.632812 452.160156 93.84375 450.703125 91.472656 449.257812 C 89.664062 448.160156 88.945312 444.210938 88.703125 442.390625 C 88.535156 442.398438 88.441406 442.402344 88.441406 442.402344 C 88.441406 442.402344 88.941406 448.757812 91.3125 450.203125 C 93.6875 451.648438 105.476562 453.105469 114.382812 453.035156 C 116.953125 453.011719 117.839844 452.097656 117.792969 450.746094 C 117.433594 451.5625 116.453125 452.074219 114.539062 452.089844 Z M 114.539062 452.089844 "/>
<path style=" stroke:none;fill-rule:nonzero;fill:rgb(24.708557%,23.919678%,33.729553%);fill-opacity:1;" d="M 473.242188 364.617188 C 473.242188 404.253906 498.125 436.324219 528.871094 436.324219 Z M 473.242188 364.617188 "/>
<path style=" stroke:none;fill-rule:nonzero;fill:rgb(42.349243%,38.819885%,100%);fill-opacity:1;" d="M 528.871094 436.324219 C 528.871094 396.246094 556.636719 363.8125 590.953125 363.8125 Z M 528.871094 436.324219 "/>
<path style=" stroke:none;fill-rule:nonzero;fill:rgb(42.349243%,38.819885%,100%);fill-opacity:1;" d="M 493.398438 368.210938 C 493.398438 405.859375 509.265625 436.324219 528.871094 436.324219 Z M 493.398438 368.210938 "/>
<path style=" stroke:none;fill-rule:nonzero;fill:rgb(24.708557%,23.919678%,33.729553%);fill-opacity:1;" d="M 528.871094 436.324219 C 528.871094 385.109375 560.964844 343.671875 600.625 343.671875 Z M 528.871094 436.324219 "/>
<path style=" stroke:none;fill-rule:nonzero;fill:rgb(65.879822%,65.879822%,65.879822%);fill-opacity:1;" d="M 517.167969 436.828125 C 517.167969 436.828125 525.058594 436.585938 527.4375 434.894531 C 529.8125 433.203125 539.570312 431.183594 540.160156 433.894531 C 540.75 436.609375 552.015625 447.390625 543.109375 447.460938 C 534.203125 447.535156 522.414062 446.074219 520.042969 444.632812 C 517.667969 443.1875 517.167969 436.828125 517.167969 436.828125 Z M 517.167969 436.828125 "/>
<path style=" stroke:none;fill-rule:nonzero;fill:rgb(0%,0%,0%);fill-opacity:0.2;" d="M 543.269531 446.519531 C 534.363281 446.589844 522.574219 445.132812 520.199219 443.6875 C 518.394531 442.585938 517.671875 438.640625 517.433594 436.816406 C 517.265625 436.824219 517.167969 436.828125 517.167969 436.828125 C 517.167969 436.828125 517.667969 443.1875 520.042969 444.632812 C 522.414062 446.074219 534.203125 447.535156 543.109375 447.460938 C 545.679688 447.441406 546.570312 446.527344 546.519531 445.171875 C 546.164062 445.992188 545.183594 446.503906 543.269531 446.519531 Z M 543.269531 446.519531 "/>
<path style=" stroke:none;fill-rule:nonzero;fill:rgb(24.708557%,23.919678%,33.729553%);fill-opacity:1;" d="M 298.597656 359.230469 L 309.75 359.230469 L 309.75 379.097656 L 298.597656 379.097656 Z M 298.597656 359.230469 "/>
<path style=" stroke:none;fill-rule:nonzero;fill:rgb(94.898987%,94.898987%,94.898987%);fill-opacity:1;" d="M 306.355469 364.558594 C 306.355469 364.847656 306.300781 365.128906 306.191406 365.394531 C 306.082031 365.660156 305.921875 365.898438 305.71875 366.101562 C 305.511719 366.304688 305.277344 366.464844 305.011719 366.574219 C 304.742188 366.683594 304.464844 366.742188 304.175781 366.742188 C 303.886719 366.742188 303.605469 366.683594 303.339844 366.574219 C 303.074219 366.464844 302.835938 366.304688 302.632812 366.101562 C 302.425781 365.898438 302.269531 365.660156 302.160156 365.394531 C 302.046875 365.128906 301.992188 364.847656 301.992188 364.558594 C 301.992188 364.269531 302.046875 363.992188 302.160156 363.726562 C 302.269531 363.457031 302.425781 363.222656 302.632812 363.019531 C 302.835938 362.8125 303.074219 362.65625 303.339844 362.546875 C 303.605469 362.433594 303.886719 362.378906 304.175781 362.378906 C 304.464844 362.378906 304.742188 362.433594 305.011719 362.546875 C 305.277344 362.65625 305.511719 362.8125 305.71875 363.019531 C 305.921875 363.222656 306.082031 363.457031 306.191406 363.726562 C 306.300781 363.992188 306.355469 364.269531 306.355469 364.558594 Z M 306.355469 364.558594 "/>
<path style=" stroke:none;fill-rule:nonzero;fill:rgb(100%,72.549438%,72.549438%);fill-opacity:1;" d="M 305.527344 342.253906 C 305.527344 342.253906 302.132812 361.925781 308.242188 362.605469 C 314.351562 363.285156 308.921875 341.574219 308.921875 341.574219 Z M 305.527344 342.253906 "/>
<path style=" stroke:none;fill-rule:nonzero;fill:rgb(34.118652%,35.289001%,53.729248%);fill-opacity:1;" d="M 309.601562 275.097656 C 309.601562 275.097656 302.472656 342.59375 304.507812 343.609375 C 306.546875 344.628906 311.976562 345.984375 312.996094 344.96875 C 314.011719 343.949219 318.085938 302.230469 318.085938 302.230469 L 315.03125 280.523438 Z M 309.601562 275.097656 "/>
<path style=" stroke:none;fill-rule:nonzero;fill:rgb(0%,0%,0%);fill-opacity:0.098;" d="M 309.601562 275.097656 C 309.601562 275.097656 302.472656 342.59375 304.507812 343.609375 C 306.546875 344.628906 311.976562 345.984375 312.996094 344.96875 C 314.011719 343.949219 318.085938 302.230469 318.085938 302.230469 L 315.03125 280.523438 Z M 309.601562 275.097656 "/>
<path style=" stroke:none;fill-rule:nonzero;fill:rgb(18.429565%,18.03894%,25.489807%);fill-opacity:1;" d="M 322.667969 244.738281 L 344.050781 244.738281 L 344.050781 267.804688 L 322.667969 267.804688 Z M 322.667969 244.738281 "/>
<path style=" stroke:none;fill-rule:nonzero;fill:rgb(100%,72.549438%,72.549438%);fill-opacity:1;" d="M 327.589844 255.085938 C 327.589844 255.085938 326.910156 270.007812 322.160156 271.027344 C 317.40625 272.042969 326.570312 289.34375 326.570312 289.34375 L 340.828125 287.984375 L 344.21875 267.632812 C 344.21875 267.632812 336.414062 266.277344 339.128906 255.761719 Z M 327.589844 255.085938 "/>
<path style=" stroke:none;fill-rule:nonzero;fill:rgb(0%,0%,0%);fill-opacity:0.098;" d="M 327.589844 255.085938 C 327.589844 255.085938 326.910156 270.007812 322.160156 271.027344 C 317.40625 272.042969 326.570312 289.34375 326.570312 289.34375 L 340.828125 287.984375 L 344.21875 267.632812 C 344.21875 267.632812 336.414062 266.277344 339.128906 255.761719 Z M 327.589844 255.085938 "/>
<path style=" stroke:none;fill-rule:nonzero;fill:rgb(100%,72.549438%,72.549438%);fill-opacity:1;" d="M 328.269531 425.691406 L 329.285156 431.457031 L 335.394531 430.101562 L 334.039062 424.335938 Z M 328.269531 425.691406 "/>
<path style=" stroke:none;fill-rule:nonzero;fill:rgb(100%,72.549438%,72.549438%);fill-opacity:1;" d="M 347.613281 416.875 L 345.578125 422.980469 L 352.027344 426.371094 L 352.367188 421.28125 Z M 347.613281 416.875 "/>
<path style=" stroke:none;fill-rule:nonzero;fill:rgb(18.429565%,18.03894%,25.489807%);fill-opacity:1;" d="M 321.140625 325.296875 C 321.140625 325.296875 312.996094 349.039062 314.691406 360.230469 C 316.386719 371.421875 323.175781 424.675781 323.175781 424.675781 C 323.175781 424.675781 330.984375 429.761719 335.734375 423.996094 L 332.339844 378.546875 C 332.339844 378.546875 333.019531 351.074219 335.734375 353.785156 C 338.449219 356.5 348.972656 388.382812 348.972656 388.382812 L 346.9375 417.214844 C 346.9375 417.214844 347.953125 426.03125 354.0625 422.300781 L 362.550781 390.417969 C 362.550781 390.417969 359.832031 347.679688 358.476562 345.984375 C 357.117188 344.289062 348.292969 324.617188 348.292969 324.617188 Z M 321.140625 325.296875 "/>
<path style=" stroke:none;fill-rule:nonzero;fill:rgb(100%,72.549438%,72.549438%);fill-opacity:1;" d="M 344.390625 251.863281 C 344.390625 252.507812 344.328125 253.148438 344.199219 253.78125 C 344.074219 254.414062 343.886719 255.03125 343.640625 255.625 C 343.394531 256.222656 343.089844 256.789062 342.730469 257.328125 C 342.371094 257.863281 341.964844 258.359375 341.507812 258.816406 C 341.050781 259.273438 340.554688 259.683594 340.015625 260.039062 C 339.476562 260.398438 338.910156 260.703125 338.3125 260.949219 C 337.714844 261.195312 337.101562 261.382812 336.46875 261.507812 C 335.832031 261.636719 335.195312 261.699219 334.546875 261.699219 C 333.902344 261.699219 333.261719 261.636719 332.628906 261.507812 C 331.992188 261.382812 331.378906 261.195312 330.78125 260.949219 C 330.183594 260.703125 329.617188 260.398438 329.078125 260.039062 C 328.542969 259.683594 328.042969 259.273438 327.585938 258.816406 C 327.128906 258.359375 326.722656 257.863281 326.363281 257.328125 C 326.003906 256.789062 325.699219 256.222656 325.453125 255.625 C 325.207031 255.03125 325.019531 254.414062 324.894531 253.78125 C 324.765625 253.148438 324.703125 252.507812 324.703125 251.863281 C 324.703125 251.214844 324.765625 250.578125 324.894531 249.945312 C 325.019531 249.308594 325.207031 248.695312 325.453125 248.097656 C 325.699219 247.5 326.003906 246.933594 326.363281 246.398438 C 326.722656 245.859375 327.128906 245.363281 327.585938 244.90625 C 328.042969 244.449219 328.542969 244.042969 329.078125 243.683594 C 329.617188 243.324219 330.183594 243.023438 330.78125 242.773438 C 331.378906 242.527344 331.992188 242.339844 332.628906 242.214844 C 333.261719 242.089844 333.902344 242.027344 334.546875 242.027344 C 335.195312 242.027344 335.832031 242.089844 336.46875 242.214844 C 337.101562 242.339844 337.714844 242.527344 338.3125 242.773438 C 338.910156 243.023438 339.476562 243.324219 340.015625 243.683594 C 340.554688 244.042969 341.050781 244.449219 341.507812 244.90625 C 341.964844 245.363281 342.371094 245.859375 342.730469 246.398438 C 343.089844 246.933594 343.394531 247.5 343.640625 248.097656 C 343.886719 248.695312 344.074219 249.308594 344.199219 249.945312 C 344.328125 250.578125 344.390625 251.214844 344.390625 251.863281 Z M 344.390625 251.863281 "/>
<path style=" stroke:none;fill-rule:nonzero;fill:rgb(42.349243%,38.819885%,100%);fill-opacity:1;" d="M 324.535156 276.113281 C 324.535156 276.113281 328.269531 281.542969 333.019531 277.808594 C 337.773438 274.078125 340.488281 273.738281 340.488281 273.738281 L 346.257812 277.132812 L 344.898438 290.359375 L 346.9375 326.992188 C 346.9375 326.992188 322.160156 329.027344 320.800781 326.3125 C 319.441406 323.597656 322.496094 312.066406 322.496094 312.066406 L 318.085938 287.308594 L 318.085938 276.113281 Z M 324.535156 276.113281 "/>
<path style=" stroke:none;fill-rule:nonzero;fill:rgb(34.118652%,35.289001%,53.729248%);fill-opacity:1;" d="M 332.339844 285.949219 C 332.339844 285.949219 326.230469 267.296875 324.195312 266.957031 C 322.160156 266.617188 316.386719 270.6875 316.386719 270.6875 C 316.386719 270.6875 307.902344 273.402344 307.902344 275.097656 C 307.902344 276.792969 309.261719 276.792969 309.261719 276.792969 L 314.011719 285.949219 C 314.011719 285.949219 316.050781 294.089844 315.371094 299.519531 C 314.960938 302.785156 314.847656 306.066406 315.03125 309.355469 C 315.03125 309.355469 307.5625 354.125 311.296875 355.480469 C 315.03125 356.839844 315.03125 358.195312 315.03125 358.195312 C 315.03125 358.195312 320.460938 361.25 321.480469 359.890625 C 322.496094 358.535156 332.339844 300.195312 332.339844 300.195312 C 332.339844 300.195312 337.433594 290.359375 332.339844 285.949219 Z M 332.339844 285.949219 "/>
<path style=" stroke:none;fill-rule:nonzero;fill:rgb(34.118652%,35.289001%,53.729248%);fill-opacity:1;" d="M 333.699219 285.949219 C 333.699219 285.949219 336.753906 278.828125 335.054688 274.078125 C 335.054688 274.078125 336.753906 273.738281 337.433594 272.722656 C 338.109375 271.703125 337.433594 266.617188 339.128906 266.277344 C 340.828125 265.9375 353.386719 266.277344 354.0625 266.957031 C 354.742188 267.636719 356.777344 272.382812 356.777344 272.382812 L 355.761719 272.382812 L 348.292969 284.59375 C 348.292969 284.59375 352.027344 307.65625 351.347656 311.390625 C 350.667969 315.121094 361.191406 330.722656 362.550781 331.738281 C 363.90625 332.757812 370.015625 349.039062 367.300781 350.734375 C 364.585938 352.429688 340.828125 363.285156 339.808594 357.855469 C 338.789062 352.429688 331.664062 319.867188 331.664062 319.867188 C 331.664062 319.867188 331.324219 301.890625 332.339844 297.484375 C 333.359375 293.074219 333.699219 285.949219 333.699219 285.949219 Z M 333.699219 285.949219 "/>
<path style=" stroke:none;fill-rule:nonzero;fill:rgb(100%,72.549438%,72.549438%);fill-opacity:1;" d="M 349.652344 340.21875 C 349.652344 340.21875 342.523438 363.621094 349.652344 362.605469 C 356.777344 361.585938 355.082031 339.539062 355.082031 339.539062 Z M 349.652344 340.21875 "/>
<path style=" stroke:none;fill-rule:nonzero;fill:rgb(18.429565%,18.03894%,25.489807%);fill-opacity:1;" d="M 334.730469 430.113281 C 334.730469 430.113281 340.359375 431.71875 339.957031 435.335938 C 339.894531 435.859375 339.765625 436.367188 339.566406 436.859375 C 339.371094 437.351562 339.113281 437.808594 338.796875 438.230469 C 338.476562 438.652344 338.113281 439.027344 337.695312 439.355469 C 337.277344 439.679688 336.828125 439.949219 336.339844 440.15625 C 335.738281 440.546875 335.292969 441.070312 335 441.726562 C 334.707031 442.378906 334.617188 443.0625 334.730469 443.769531 C 335.132812 446.179688 331.515625 449.796875 325.488281 448.1875 C 319.457031 446.582031 320.664062 444.976562 320.664062 444.976562 C 320.828125 444.085938 321.152344 443.257812 321.640625 442.492188 C 322.125 441.726562 322.738281 441.082031 323.476562 440.558594 C 325.890625 438.949219 328.703125 433.328125 328.703125 432.925781 C 328.703125 432.523438 329.507812 429.710938 329.507812 429.710938 C 329.507812 429.710938 332.722656 427.703125 334.730469 430.113281 Z M 334.730469 430.113281 "/>
<path style=" stroke:none;fill-rule:nonzero;fill:rgb(18.429565%,18.03894%,25.489807%);fill-opacity:1;" d="M 346.597656 422.300781 C 346.597656 422.300781 340.488281 425.015625 341.84375 428.40625 C 343.203125 431.796875 347.613281 436.546875 348.292969 441.632812 C 348.972656 446.722656 354.742188 451.132812 358.816406 448.417969 C 362.886719 445.703125 358.136719 440.277344 358.136719 440.277344 C 358.136719 440.277344 353.046875 430.78125 352.707031 428.746094 C 352.367188 426.710938 353.386719 424.675781 351.347656 423.996094 C 349.3125 423.316406 346.597656 422.300781 346.597656 422.300781 Z M 346.597656 422.300781 "/>
<path style=" stroke:none;fill-rule:nonzero;fill:rgb(0%,0%,0%);fill-opacity:0.098;" d="M 355.589844 275.945312 C 355.589844 275.945312 354.742188 272.042969 355.761719 274.417969 C 356.777344 276.792969 364.246094 305.621094 357.457031 322.921875 C 357.457031 322.921875 356.777344 344.289062 356.101562 344.289062 C 355.421875 344.289062 347.277344 343.949219 347.613281 341.574219 C 347.953125 339.203125 348.632812 300.875 348.632812 298.5 C 348.632812 296.125 349.820312 280.691406 349.820312 280.691406 Z M 355.589844 275.945312 "/>
<path style=" stroke:none;fill-rule:nonzero;fill:rgb(34.118652%,35.289001%,53.729248%);fill-opacity:1;" d="M 354.0625 270.007812 C 355.15625 271.363281 356.0625 272.832031 356.777344 274.417969 C 357.796875 276.792969 365.265625 305.621094 358.476562 322.921875 C 358.476562 322.921875 357.796875 344.289062 357.117188 344.289062 C 356.441406 344.289062 348.292969 343.949219 348.632812 341.574219 C 348.972656 339.203125 349.652344 300.875 349.652344 298.5 C 349.652344 296.125 347.613281 280.183594 347.613281 280.183594 Z M 354.0625 270.007812 "/>
<path style=" stroke:none;fill-rule:nonzero;fill:rgb(18.429565%,18.03894%,25.489807%);fill-opacity:1;" d="M 329 234.546875 C 325.4375 235.660156 322.777344 238.566406 320.300781 241.351562 C 319.332031 242.34375 318.523438 243.449219 317.871094 244.675781 C 317.238281 246.238281 316.910156 247.867188 316.890625 249.558594 C 316.726562 252.152344 316.671875 254.75 316.734375 257.355469 C 316.789062 259.847656 316.941406 262.402344 316.175781 264.777344 C 315.433594 267.070312 313.890625 269.011719 312.832031 271.175781 C 311.140625 274.632812 310.75 278.824219 312.308594 282.339844 C 313.167969 284.277344 314.558594 285.921875 315.601562 287.769531 C 316.519531 289.410156 317.144531 291.160156 317.476562 293.011719 C 317.804688 294.863281 317.824219 296.71875 317.53125 298.578125 L 322.421875 292.253906 C 325.550781 288.199219 328.78125 283.929688 329.660156 278.886719 C 330.9375 271.570312 327.035156 264.40625 326.261719 257.019531 C 326.046875 254.960938 326.121094 252.738281 327.285156 251.027344 C 329.007812 248.5 332.753906 247.609375 333.789062 244.730469 C 333.9375 245.9375 341.160156 249.773438 342.027344 249.027344 C 342.296875 249.746094 342.46875 250.488281 342.542969 251.253906 C 342.621094 252.019531 342.597656 252.78125 342.480469 253.542969 C 342.359375 254.300781 342.148438 255.035156 341.839844 255.738281 C 341.53125 256.445312 341.140625 257.097656 340.664062 257.703125 C 339.964844 258.570312 339.105469 259.300781 338.425781 260.179688 C 336.660156 262.460938 336.257812 265.535156 336.507812 268.410156 C 336.757812 271.28125 337.582031 274.070312 338.019531 276.921875 C 338.390625 279.761719 338.566406 282.613281 338.550781 285.480469 C 338.582031 287.460938 338.527344 289.671875 337.136719 291.082031 C 339.445312 290.277344 341.480469 289.027344 343.246094 287.34375 C 344.195312 286.308594 345.210938 285.347656 346.292969 284.457031 C 348.480469 282.878906 351.441406 282.414062 353.226562 280.390625 C 354.820312 278.589844 355.074219 275.941406 354.699219 273.566406 C 354.324219 271.191406 353.414062 268.929688 352.953125 266.566406 C 352.363281 263.519531 352.523438 260.507812 353.425781 257.539062 C 354.074219 255.414062 355.113281 253.363281 355.238281 251.144531 C 355.496094 246.621094 352.003906 242.835938 348.648438 239.785156 C 343.617188 235.21875 335.828125 232.410156 329 234.546875 Z M 329 234.546875 "/>
<path style=" stroke:none;fill-rule:nonzero;fill:rgb(94.898987%,94.898987%,94.898987%);fill-opacity:1;" d="M 617.292969 151.136719 C 614.285156 152.246094 609 153.15625 602.886719 153.890625 C 586.257812 155.882812 563.46875 156.589844 563.46875 156.589844 C 563.46875 156.589844 446.359375 166.296875 358.582031 130.199219 C 358.582031 130.199219 345.8125 123.507812 357.671875 114.507812 C 359.5 113.15625 361.429688 111.980469 363.464844 110.972656 C 363.464844 110.972656 363.515625 110.921875 363.609375 110.832031 C 364.960938 109.582031 366.410156 108.464844 367.960938 107.480469 C 372.507812 104.542969 380.1875 101.058594 389.53125 102.636719 L 620.0625 139.898438 C 620.0625 139.898438 628.484375 147.007812 617.292969 151.136719 Z M 617.292969 151.136719 "/>
<path style=" stroke:none;fill-rule:nonzero;fill:rgb(94.898987%,94.898987%,94.898987%);fill-opacity:1;" d="M 571.355469 134.25 L 619.617188 100.03125 L 640.890625 103.707031 L 620.0625 139.898438 C 620.0625 139.898438 571.910156 140.28125 571.355469 134.25 Z M 571.355469 134.25 "/>
<g clip-path="url(#clip3)" clip-rule="nonzero">
<path style=" stroke:none;fill-rule:nonzero;fill:rgb(94.898987%,94.898987%,94.898987%);fill-opacity:1;" d="M 449.847656 113.464844 L 545.980469 86.523438 L 561.480469 89.757812 L 518.054688 109.277344 L 504.480469 124.453125 Z M 449.847656 113.464844 "/>
</g>
<path style=" stroke:none;fill-rule:nonzero;fill:rgb(94.898987%,94.898987%,94.898987%);fill-opacity:1;" d="M 602.886719 153.890625 C 586.257812 155.882812 563.46875 156.589844 563.46875 156.589844 C 563.46875 156.589844 446.359375 166.296875 358.582031 130.199219 C 358.582031 130.199219 345.8125 123.507812 357.671875 114.507812 L 357.714844 114.671875 C 357.714844 114.671875 376.652344 127.464844 467.148438 138.144531 Z M 602.886719 153.890625 "/>
<path style=" stroke:none;fill-rule:nonzero;fill:rgb(94.898987%,94.898987%,94.898987%);fill-opacity:1;" d="M 587.433594 153.148438 L 630.414062 170.683594 L 641.210938 169.488281 L 615.5 150.179688 C 615.5 150.179688 584.40625 143.554688 587.433594 153.148438 Z M 587.433594 153.148438 "/>
<path style=" stroke:none;fill-rule:nonzero;fill:rgb(94.898987%,94.898987%,94.898987%);fill-opacity:1;" d="M 373.28125 116.542969 C 371.230469 116.582031 366.53125 113.140625 363.609375 110.832031 C 364.960938 109.582031 366.410156 108.464844 367.960938 107.480469 C 370.316406 109.285156 374.507812 112.207031 376.835938 112.105469 C 380.199219 111.953125 376.367188 116.492188 373.28125 116.542969 Z M 373.28125 116.542969 "/>
<path style=" stroke:none;fill-rule:nonzero;fill:rgb(94.898987%,94.898987%,94.898987%);fill-opacity:1;" d="M 568.539062 213.769531 L 540.945312 215.210938 L 463.363281 162.933594 L 448.960938 153.226562 L 441.960938 148.511719 C 455.089844 137.425781 508.636719 152.710938 508.636719 152.710938 C 509.660156 153.574219 509.988281 155.011719 509.941406 156.597656 C 509.851562 159.570312 508.453125 163.070312 507.914062 164.316406 C 507.785156 164.617188 507.707031 164.785156 507.707031 164.785156 Z M 568.539062 213.769531 "/>
<path style=" stroke:none;fill-rule:nonzero;fill:rgb(24.708557%,23.919678%,33.729553%);fill-opacity:1;" d="M 617.292969 151.136719 C 614.285156 152.246094 609 153.15625 602.886719 153.890625 C 586.257812 155.882812 563.46875 156.589844 563.46875 156.589844 C 563.46875 156.589844 446.359375 166.296875 358.582031 130.199219 C 358.582031 130.199219 345.8125 123.507812 357.671875 114.507812 C 359.5 113.15625 361.429688 111.980469 363.464844 110.972656 C 363.464844 110.972656 363.515625 110.921875 363.609375 110.832031 C 364.960938 109.582031 366.410156 108.464844 367.960938 107.480469 C 372.507812 104.542969 380.1875 101.058594 389.53125 102.636719 L 620.0625 139.898438 C 620.0625 139.898438 628.484375 147.007812 617.292969 151.136719 Z M 617.292969 151.136719 "/>
<path style=" stroke:none;fill-rule:nonzero;fill:rgb(24.708557%,23.919678%,33.729553%);fill-opacity:1;" d="M 571.355469 134.25 L 619.617188 100.03125 L 640.890625 103.707031 L 620.0625 139.898438 C 620.0625 139.898438 571.910156 140.28125 571.355469 134.25 Z M 571.355469 134.25 "/>
<g clip-path="url(#clip4)" clip-rule="nonzero">
<path style=" stroke:none;fill-rule:nonzero;fill:rgb(24.708557%,23.919678%,33.729553%);fill-opacity:1;" d="M 449.847656 113.464844 L 545.980469 86.523438 L 561.480469 89.757812 L 518.054688 109.277344 L 504.480469 124.453125 Z M 449.847656 113.464844 "/>
</g>
<path style=" stroke:none;fill-rule:nonzero;fill:rgb(42.349243%,38.819885%,100%);fill-opacity:1;" d="M 602.886719 153.890625 C 586.257812 155.882812 563.46875 156.589844 563.46875 156.589844 C 563.46875 156.589844 446.359375 166.296875 358.582031 130.199219 C 358.582031 130.199219 345.8125 123.507812 357.671875 114.507812 L 357.714844 114.671875 C 357.714844 114.671875 376.652344 127.464844 467.148438 138.144531 Z M 602.886719 153.890625 "/>
<path style=" stroke:none;fill-rule:nonzero;fill:rgb(24.708557%,23.919678%,33.729553%);fill-opacity:1;" d="M 587.433594 153.148438 L 630.414062 170.683594 L 641.210938 169.488281 L 615.5 150.179688 C 615.5 150.179688 584.40625 143.554688 587.433594 153.148438 Z M 587.433594 153.148438 "/>
<path style=" stroke:none;fill-rule:nonzero;fill:rgb(42.349243%,38.819885%,100%);fill-opacity:1;" d="M 373.28125 116.542969 C 371.230469 116.582031 366.53125 113.140625 363.609375 110.832031 C 364.960938 109.582031 366.410156 108.464844 367.960938 107.480469 C 370.316406 109.285156 374.507812 112.207031 376.835938 112.105469 C 380.199219 111.953125 376.367188 116.492188 373.28125 116.542969 Z M 373.28125 116.542969 "/>
<path style=" stroke:none;fill-rule:nonzero;fill:rgb(24.708557%,23.919678%,33.729553%);fill-opacity:1;" d="M 568.539062 213.769531 L 540.945312 215.210938 L 463.363281 162.933594 L 448.960938 153.226562 L 441.960938 148.511719 C 455.089844 137.425781 508.636719 152.710938 508.636719 152.710938 C 509.660156 153.574219 509.988281 155.011719 509.941406 156.597656 C 509.851562 159.570312 508.453125 163.070312 507.914062 164.316406 C 507.785156 164.617188 507.707031 164.785156 507.707031 164.785156 Z M 568.539062 213.769531 "/>
</g>
</svg>
